<?xml version="1.0" encoding="utf-8"?>
<!-- Generator: Adobe Illustrator 19.0.0, SVG Export Plug-In . SVG Version: 6.00 Build 0)  -->
<!DOCTYPE svg PUBLIC "-//W3C//DTD SVG 1.1//EN" "http://www.w3.org/Graphics/SVG/1.1/DTD/svg11.dtd">
<svg version="1.1" id="Layer_1" xmlns="http://www.w3.org/2000/svg" xmlns:xlink="http://www.w3.org/1999/xlink" x="0px" y="0px"
	 width="26px" height="31px" viewBox="-236 235 26 31" style="enable-background:new -236 235 26 31;" xml:space="preserve">
<style type="text/css">
	.st0{fill:#FFFFFF;}
</style>
<g id="web">
	<g id="_x36_a.-File-View-Copy-6" transform="translate(-1315.000000, -16.000000)">
		<g id="header" transform="translate(24.000000, 15.000000)">
			<g id="chat-2-copy" transform="translate(1291.000000, 1.000000)">
				<path id="Shape" class="st0" d="M-231,264.6c0,0.8,1.2,1.3,1.9,0.8l7.4-5.1l0,0l0,0l0,0c6.7-0.5,11.7-6,11.7-12.6
					c0-7-5.8-12.7-13-12.7s-13,5.7-13,12.7c0,4,1.9,7.6,5,10 M-229,257.2c0-0.3-0.1-0.6-0.5-0.8c-3-1.9-4.6-5-4.6-8.7
					c0-5.9,4.9-10.7,11-10.7s11,4.8,11,10.7c0,5.6-4.4,10.2-10.1,10.6c-0.2,0-0.3,0.1-0.5,0.2l-6.3,4.4"/>
			</g>
		</g>
	</g>
</g>
</svg>
