<?xml version="1.0" encoding="utf-8"?>
<!-- Generator: Adobe Illustrator 19.0.0, SVG Export Plug-In . SVG Version: 6.00 Build 0)  -->
<!DOCTYPE svg PUBLIC "-//W3C//DTD SVG 1.1//EN" "http://www.w3.org/Graphics/SVG/1.1/DTD/svg11.dtd">
<svg version="1.1" id="Layer_1" xmlns="http://www.w3.org/2000/svg" xmlns:xlink="http://www.w3.org/1999/xlink" x="0px" y="0px"
	 width="27px" height="27px" viewBox="-236 237 27 27" style="enable-background:new -236 237 27 27;" xml:space="preserve">
<style type="text/css">
	.st0{fill:#FFFFFF;}
</style>
<g id="more" transform="translate(1329.000000, 0.000000)">
	<path id="Oval-298" class="st0" d="M-1555,250.5c0-0.8-0.7-1.5-1.5-1.5s-1.5,0.7-1.5,1.5s0.7,1.5,1.5,1.5S-1555,251.3-1555,250.5z
		 M-1550,250.5c0-0.8-0.7-1.5-1.5-1.5s-1.5,0.7-1.5,1.5s0.7,1.5,1.5,1.5S-1550,251.3-1550,250.5z M-1545,250.5
		c0-0.8-0.7-1.5-1.5-1.5c-0.8,0-1.5,0.7-1.5,1.5s0.7,1.5,1.5,1.5C-1545.7,252-1545,251.3-1545,250.5z"/>
	<path id="Shape" class="st0" d="M-1551.5,262L-1551.5,262c6.4,0,11.5-5.1,11.5-11.5s-5.1-11.5-11.5-11.5s-11.5,5.1-11.5,11.5
		S-1557.9,262-1551.5,262L-1551.5,262z M-1551.5,264L-1551.5,264c-7.5,0-13.5-6-13.5-13.5s6-13.5,13.5-13.5s13.5,6,13.5,13.5
		S-1544,264-1551.5,264L-1551.5,264z"/>
</g>
</svg>
