<?xml version="1.0" encoding="UTF-8" standalone="no"?>
<svg width="22px" height="22px" viewBox="0 0 22 22" version="1.1" xmlns="http://www.w3.org/2000/svg" xmlns:xlink="http://www.w3.org/1999/xlink" xmlns:sketch="http://www.bohemiancoding.com/sketch/ns">
    <!-- Generator: Sketch 3.3.3 (12081) - http://www.bohemiancoding.com/sketch -->
    <title>magnify</title>
    <desc>Created with Sketch.</desc>
    <defs></defs>
    <g id="Page-2" stroke="none" stroke-width="1" fill="none" fill-rule="evenodd" sketch:type="MSPage">
        <g id="Artboard-1" sketch:type="MSArtboardGroup" transform="translate(-13.000000, -13.000000)" fill="#9E9E9E">
            <path d="M27.6181191,29.0315527 C26.0783814,30.2633889 24.1252131,31 22,31 C17.0294373,31 13,26.9705627 13,22 C13,17.0294373 17.0294373,13 22,13 C26.9705627,13 31,17.0294373 31,22 C31,24.1248143 30.2636653,26.0776485 29.032246,27.6172524 L34.7061315,33.2911379 C35.0949287,33.6799351 35.0962512,34.3089773 34.7030043,34.7022243 C34.31248,35.0927486 33.6813503,35.0947838 33.2919179,34.7053515 L27.6181191,29.0315527 L27.6181191,29.0315527 Z M22,29 C25.8659932,29 29,25.8659932 29,22 C29,18.1340068 25.8659932,15 22,15 C18.1340068,15 15,18.1340068 15,22 C15,25.8659932 18.1340068,29 22,29 Z M23,21 L23,18.9970301 C23,18.4530363 22.5522847,18 22,18 C21.4438648,18 21,18.4463856 21,18.9970301 L21,21 L18.9970301,21 C18.4530363,21 18,21.4477153 18,22 C18,22.5561352 18.4463856,23 18.9970301,23 L21,23 L21,25.0029699 C21,25.5469637 21.4477153,26 22,26 C22.5561352,26 23,25.5536144 23,25.0029699 L23,23 L25.0029699,23 C25.5469637,23 26,22.5522847 26,22 C26,21.4438648 25.5536144,21 25.0029699,21 L23,21 Z" id="magnify" sketch:type="MSShapeGroup"></path>
        </g>
    </g>
</svg>