<?xml version="1.0" encoding="UTF-8" standalone="no"?>
<svg width="21px" height="12px" viewBox="0 0 21 12" version="1.1" xmlns="http://www.w3.org/2000/svg" xmlns:xlink="http://www.w3.org/1999/xlink">
    <defs></defs>
    <g id="Page-1" stroke="none" stroke-width="1" fill="none" fill-rule="evenodd">
        <g id="Icons" transform="translate(-456.000000, -91.000000)" fill="#FFFFFF">
            <g id="arrow-up-2-copy" transform="translate(456.000000, 91.000000)">
                <g id="icon-back-arrow">
                    <path d="M-7.10542736e-14,6 C-7.68283395e-14,5.70079881 0.133629858,5.43228823 0.341405005,5.2490289 L5.29491854,0.295515365 C5.68669006,-0.0962561516 6.31814345,-0.0999898908 6.7113904,0.293257065 C7.10191469,0.683781356 7.10112019,1.31774084 6.7091321,1.70972893 L3.40002441,5 L19.6061583,5 C20.153916,5 20.5979614,5.44386482 20.5979614,6 C20.5979614,6.55228475 20.1426558,7 19.6061583,7 L3.39882817,7 L6.69378651,10.2949583 C7.0857746,10.6869464 7.0865691,11.3209059 6.69604481,11.7114302 C6.30279786,12.1046772 5.67134447,12.1009434 5.27957295,11.7091719 L0.298303113,6.72790207 C0.161401904,6.59100086 0.0722163123,6.42458532 0.030751673,6.24933348 C0.0106733146,6.16974472 -6.9401865e-14,6.08622165 -7.10542736e-14,6 Z" id="Rectangle-562"></path>
                </g>
            </g>
        </g>
    </g>
</svg>
